<svg width="20" height="20" viewBox="0 0 20 20" fill="none" xmlns="http://www.w3.org/2000/svg">
<path fill-rule="evenodd" clip-rule="evenodd" d="M13.8926 12.6086L18.7343 17.4503C18.9045 17.6206 19.0001 17.8516 19 18.0923C18.9999 18.3331 18.9042 18.564 18.7339 18.7341C18.5636 18.9043 18.3327 18.9999 18.0919 18.9998C17.8511 18.9997 17.6203 18.904 17.4501 18.7337L12.6083 13.8919C11.1609 15.013 9.34083 15.5405 7.51828 15.3673C5.69573 15.194 4.00764 14.3329 2.79742 12.9592C1.5872 11.5855 0.945764 9.80234 1.0036 7.97248C1.06143 6.14263 1.81419 4.40353 3.10874 3.10898C4.40329 1.81443 6.14238 1.06167 7.97224 1.00384C9.80209 0.946008 11.5853 1.58745 12.959 2.79766C14.3327 4.00788 15.1937 5.69597 15.367 7.51853C15.5403 9.34108 15.0127 11.1612 13.8917 12.6086M8.20033 13.5994C9.63244 13.5994 11.0059 13.0305 12.0185 12.0179C13.0312 11.0052 13.6001 9.63178 13.6001 8.19968C13.6001 6.76758 13.0312 5.39413 12.0185 4.38148C11.0059 3.36883 9.63244 2.79993 8.20033 2.79993C6.76823 2.79993 5.39479 3.36883 4.38214 4.38148C3.36949 5.39413 2.80059 6.76758 2.80059 8.19968C2.80059 9.63178 3.36949 11.0052 4.38214 12.0179C5.39479 13.0305 6.76823 13.5994 8.20033 13.5994Z" fill="#43A9F3"/>
</svg>
