<svg width="30" height="30" viewBox="0 0 30 30" fill="none" xmlns="http://www.w3.org/2000/svg">
<path d="M4.80005 21.4155V26.103H9.48755L23.3125 12.278L18.625 7.59053L4.80005 21.4155ZM26.9375 8.65303C27.0534 8.53739 27.1454 8.40003 27.2081 8.24881C27.2708 8.09759 27.3031 7.93549 27.3031 7.77178C27.3031 7.60807 27.2708 7.44597 27.2081 7.29475C27.1454 7.14353 27.0534 7.00617 26.9375 6.89053L24.0125 3.96553C23.8969 3.84965 23.7595 3.75772 23.6083 3.69499C23.4571 3.63226 23.295 3.59998 23.1313 3.59998C22.9676 3.59998 22.8055 3.63226 22.6543 3.69499C22.503 3.75772 22.3657 3.84965 22.25 3.96553L19.9625 6.25303L24.65 10.9405L26.9375 8.65303Z" fill="#43A9F3"/>
</svg>
