<svg width="265" height="263" viewBox="0 0 265 263" fill="none" xmlns="http://www.w3.org/2000/svg">
<path fill-rule="evenodd" clip-rule="evenodd" d="M258.27 1.30982C258.848 1.55029 259.366 1.9194 259.787 2.39023C260.208 2.86417 260.518 3.42949 260.694 4.04353C260.87 4.65758 260.906 5.30433 260.801 5.935C260.078 10.3604 258.376 16.6097 256.574 23.2276L256.574 23.2284L256.566 23.2575C255.472 27.2797 254.392 31.323 253.564 34.8002H11.2584L4.27727 6.2392C4.1173 5.59409 4.10893 4.91956 4.25284 4.27052C4.39674 3.62149 4.68886 3.01632 5.10539 2.5043C5.52041 1.99027 6.05027 1.58539 6.65045 1.32366C7.25064 1.06193 7.90362 0.951004 8.55453 1.0002C49.6337 3.8056 91.3215 5.2252 132.5 5.2252C173.679 5.2252 215.383 3.8056 256.445 1.0002C257.069 0.963563 257.692 1.06934 258.27 1.30982ZM45.5469 26.3502H49.6875C50.7857 26.3502 51.8388 25.9051 52.6154 25.1127C53.3919 24.3204 53.8281 23.2457 53.8281 22.1252C53.8281 21.0047 53.3919 19.93 52.6154 19.1377C51.8388 18.3453 50.7857 17.9002 49.6875 17.9002H45.5469C44.4487 17.9002 43.3955 18.3453 42.619 19.1377C41.8425 19.93 41.4062 21.0047 41.4062 22.1252C41.4062 23.2457 41.8425 24.3204 42.619 25.1127C43.3955 25.9051 44.4487 26.3502 45.5469 26.3502ZM66.25 26.3502H70.3906C71.4888 26.3502 72.542 25.9051 73.3185 25.1127C74.095 24.3204 74.5312 23.2457 74.5312 22.1252C74.5312 21.0047 74.095 19.93 73.3185 19.1377C72.542 18.3453 71.4888 17.9002 70.3906 17.9002H66.25C65.1518 17.9002 64.0987 18.3453 63.3221 19.1377C62.5456 19.93 62.1094 21.0047 62.1094 22.1252C62.1094 23.2457 62.5456 24.3204 63.3221 25.1127C64.0987 25.9051 65.1518 26.3502 66.25 26.3502ZM125.432 96.9375C126.208 97.7299 127.261 98.175 128.359 98.175H136.641C137.739 98.175 138.792 97.7299 139.568 96.9375C140.345 96.1452 140.781 95.0705 140.781 93.95C140.781 92.8295 140.345 91.7548 139.568 90.9625C138.792 90.1701 137.739 89.725 136.641 89.725H128.359C127.261 89.725 126.208 90.1701 125.432 90.9625C124.655 91.7548 124.219 92.8295 124.219 93.95C124.219 95.0705 124.655 96.1452 125.432 96.9375ZM107.656 140.425V64.375H157.344V140.425H107.656ZM219.453 254.5V224.925H182.188V254.5H82.8125V224.925H45.5469V254.5H0V262.95H49.6875H78.6719H186.328H215.312H265V254.5H219.453ZM219.453 102.4H248.438C249.536 102.4 250.589 102.845 251.365 103.637C252.142 104.43 252.578 105.504 252.578 106.625V136.2C252.578 137.321 252.142 138.395 251.365 139.188C250.589 139.98 249.536 140.425 248.438 140.425H219.453V216.475H182.188V140.425H165.625V102.4H182.188V85.5H219.453V102.4ZM82.8125 85.5H45.5469V102.4H16.5625C15.4643 102.4 14.4112 102.845 13.6346 103.637C12.8581 104.43 12.4219 105.504 12.4219 106.625V136.2C12.4219 137.321 12.8581 138.395 13.6346 139.188C14.4112 139.98 15.4643 140.425 16.5625 140.425H45.5469V216.475H82.8125V140.425H99.375V102.4H82.8125V85.5ZM12.4219 72.825V43.25H252.578V72.825C252.578 73.9455 252.142 75.0202 251.365 75.8125C250.589 76.6049 249.536 77.05 248.438 77.05H165.625V55.925H99.375V77.05H16.5625C15.4643 77.05 14.4112 76.6049 13.6346 75.8125C12.8581 75.0202 12.4219 73.9455 12.4219 72.825Z" fill="url(#paint0_linear_116_93)"/>
<defs>
<linearGradient id="paint0_linear_116_93" x1="132.5" y1="0.988831" x2="132.5" y2="262.95" gradientUnits="userSpaceOnUse">
<stop stop-color="white"/>
<stop offset="1" stop-color="#B1CAE3"/>
</linearGradient>
</defs>
</svg>
