<svg width="305" height="280" viewBox="0 0 305 280" fill="none" xmlns="http://www.w3.org/2000/svg">
<path fill-rule="evenodd" clip-rule="evenodd" d="M280.404 120.604C283.695 131.084 285.031 142.362 284.204 153.884C303.843 168.399 310.886 195.83 299.624 221.105C286.199 251.232 251.894 266.891 222.991 256.106L211.258 251.727C206.932 257.452 201.444 262.706 194.869 267.17C170.862 283.467 140.043 283.997 119.792 270.135C80.8606 281.81 39.0303 272.612 16.0032 244.206C-7.02399 215.8 -4.48415 176.48 19.0175 145.771C10.9325 125.251 18.9767 100.216 40.0673 83.797L37.5131 82.0737C15.5649 67.2659 8.51233 40.5301 22.5237 23.1387C28.2239 16.0866 36.73 11.2449 46.6911 9.38254C56.6522 7.52021 67.4972 8.744 77.5038 12.8595C78.0077 13.0669 78.4566 13.3832 78.803 13.7751C79.1494 14.1669 79.3806 14.6199 79.4723 15.0863C79.5639 15.5526 79.5126 16.0151 79.3237 16.4249C79.1348 16.8347 78.8153 17.1768 78.3989 17.415C71.9658 21.1709 66.4165 25.9077 61.9664 31.4413C61.5266 31.984 61.2326 32.6164 61.1028 33.2991C60.973 33.9817 61.0101 34.7 61.212 35.409C61.4139 36.1179 61.776 36.8023 62.2759 37.4194C62.7758 38.0364 63.4026 38.5729 64.1172 38.9952C65.4704 39.7641 67.0379 40.0918 68.5061 39.9127C69.9744 39.7336 71.2351 39.0609 72.0362 38.0292C77.4535 31.3367 84.7581 26.064 93.3728 22.6276C103.753 18.4749 115.651 17.1207 127.735 18.7166C135.205 19.7031 142.565 21.7929 149.501 24.8673C150.22 23.5509 151.051 22.258 151.993 20.9885C157.033 14.2013 164.024 9.70779 172.963 7.508C181.903 5.30821 190.962 5.98165 200.142 9.52833C208.746 3.17618 218.877 6.69328e-05 230.535 1.06946e-09C242.193 -6.69262e-05 253.073 3.14112 263.174 9.42355C275.615 17.1609 283.535 27.2718 286.935 39.7563C290.334 52.2408 288.253 63.5704 280.69 73.7451C287.51 79.0042 291.675 85.3805 293.186 92.8738C294.696 100.367 293.221 107.113 288.76 113.111C286.446 116.227 283.66 118.725 280.404 120.604ZM186.614 113.485C184.644 113.485 182.754 112.678 181.361 111.241C179.968 109.805 179.185 107.856 179.185 105.825C179.185 103.793 179.968 101.845 181.361 100.409C182.754 98.972 184.644 98.165 186.614 98.165C188.584 98.165 190.473 98.972 191.866 100.409C193.259 101.845 194.042 103.793 194.042 105.825C194.042 106.831 193.85 107.827 193.477 108.756C193.103 109.686 192.556 110.53 191.866 111.241C191.177 111.953 190.358 112.517 189.456 112.902C188.555 113.287 187.589 113.485 186.614 113.485ZM186.614 84.3771C181.097 84.3771 175.807 86.6368 171.906 90.659C168.006 94.6813 165.815 100.137 165.815 105.825C165.815 121.911 186.614 145.657 186.614 145.657C186.614 145.657 207.413 121.911 207.413 105.825C207.413 100.137 205.222 94.6813 201.321 90.659C197.42 86.6368 192.13 84.3771 186.614 84.3771ZM208.367 164.253C208.356 164.603 208.252 164.908 208.061 165.145L171.9 210.061C171.601 210.432 171.107 210.62 170.501 210.593C169.895 210.567 169.215 210.328 168.577 209.917L140.401 191.774C140.037 191.54 139.696 191.255 139.398 190.937L116.839 166.861L89.2165 149.073C88.808 148.81 88.4295 148.484 88.1086 148.121C87.7876 147.757 87.5321 147.363 87.3604 146.969C87.1886 146.574 87.105 146.188 87.1156 145.839C87.1261 145.489 87.2306 145.185 87.4213 144.947L123.582 100.031C123.881 99.6604 124.375 99.4724 124.981 99.4987C125.587 99.5251 126.267 99.7641 126.906 100.175L155.081 118.318C155.445 118.553 155.786 118.837 156.084 119.155L178.644 143.231L206.266 161.019C206.674 161.282 207.053 161.608 207.374 161.971C207.695 162.335 207.95 162.729 208.122 163.123C208.294 163.518 208.377 163.904 208.367 164.253ZM150.182 120.13L116.656 161.774L118.92 163.234C119.284 163.469 119.625 163.753 119.923 164.071L121.774 166.044L155.301 124.4L153 121.945L150.182 120.13ZM173.708 144.048L140.182 185.692L142.483 188.148L145.3 189.962L178.827 148.318L176.562 146.858C176.198 146.623 175.857 146.339 175.559 146.021L173.708 144.048Z" fill="url(#paint0_linear_105_155)"/>
<defs>
<linearGradient id="paint0_linear_105_155" x1="147.869" y1="-8.48485" x2="147.869" y2="271.515" gradientUnits="userSpaceOnUse">
<stop stop-color="white"/>
<stop offset="1" stop-color="#B1CAE3"/>
</linearGradient>
</defs>
</svg>
