<svg width="210" height="262" viewBox="0 0 210 262" fill="none" xmlns="http://www.w3.org/2000/svg">
<path fill-rule="evenodd" clip-rule="evenodd" d="M26.2 0C11.79 0 0 11.79 0 26.2V262L104.8 209.6L209.6 262V26.2C209.6 19.2513 206.84 12.5873 201.926 7.6738C197.013 2.76035 190.349 0 183.4 0H26.2ZM59.7688 21.8333H147.102C165.158 21.8333 179.852 36.5272 179.852 54.5834V207.417C179.852 222.744 171.075 229.61 162.375 229.61C156.72 229.61 151.141 226.892 145.781 221.532L111.154 186.904C109.065 184.937 106.305 183.841 103.436 183.841C100.566 183.841 97.8056 184.937 95.7174 186.904L61.0897 221.532C50.1949 232.449 36.5381 231.652 30.3811 221.445C28.1541 217.744 27.0188 213.028 27.0188 207.417V54.5834C27.0188 36.5272 41.7126 21.8333 59.7688 21.8333ZM147.102 43.6667H59.7688C53.7537 43.6667 48.8521 48.5683 48.8521 54.5834V162.713L75.598 138.183C90.9468 124.123 115.913 124.112 131.262 138.183L158.019 162.713V54.5834C158.019 48.5683 153.117 43.6667 147.102 43.6667ZM103.436 161.905C112.202 161.905 120.422 165.3 126.59 171.468L158.019 202.897V177.527L123.882 146.24C112.605 135.902 94.2546 135.902 82.9777 146.24L48.8521 177.527V202.897L80.2812 171.468C86.4492 165.311 94.6694 161.905 103.436 161.905Z" fill="url(#paint0_linear_116_230)"/>
<defs>
<linearGradient id="paint0_linear_116_230" x1="104.8" y1="0" x2="104.8" y2="262" gradientUnits="userSpaceOnUse">
<stop stop-color="white"/>
<stop offset="1" stop-color="#B1CAE3"/>
</linearGradient>
</defs>
</svg>
