<svg width="155" height="77" viewBox="0 0 155 77" fill="none" xmlns="http://www.w3.org/2000/svg">
<path fill-rule="evenodd" clip-rule="evenodd" d="M5.928 33.1867V10.2093H0V3.496H20.4187V10.2093H14.4907V33.1867H5.928ZM31.1266 33.1867H22.9439V16.796L21.4239 15.8587V12.996L26.8706 11.6533H28.9226L29.6572 17.6827C30.3497 13.5449 32.5705 11.476 36.3199 11.476C36.7421 11.476 37.1812 11.552 37.6372 11.704L36.7759 20.7227C36.4212 20.4018 35.6443 20.2413 34.4452 20.2413C32.7225 20.2413 31.6163 20.6973 31.1266 21.6093V33.1867ZM50.5871 30.932L50.3338 31.2107C50.1649 31.4133 49.9031 31.6498 49.5484 31.92C49.2107 32.1902 48.8138 32.4604 48.3578 32.7307C47.9187 33.0009 47.3782 33.2289 46.7364 33.4147C46.0947 33.6173 45.436 33.7187 44.7604 33.7187C40.2004 33.7187 37.9204 31.464 37.9204 26.9547C37.9204 26.0764 38.0809 25.2742 38.4018 24.548C38.7227 23.8049 39.1364 23.18 39.6431 22.6733C40.1498 22.1667 40.7578 21.7191 41.4671 21.3307C42.1764 20.9253 42.8858 20.6129 43.5951 20.3933C44.3213 20.1569 45.0813 19.9627 45.8751 19.8107C46.6689 19.6587 47.3782 19.5573 48.0031 19.5067C48.628 19.456 49.2275 19.4307 49.8018 19.4307V18.9747C49.8018 17.9444 49.5231 17.2182 48.9658 16.796C48.4253 16.3738 47.5471 16.1627 46.3311 16.1627C45.284 16.1627 44.1947 16.2893 43.0631 16.5427C41.9315 16.7791 41.0449 17.0662 40.4031 17.404L38.7818 13.9587C39.9302 13.2156 41.4249 12.5653 43.2658 12.008C45.1067 11.4338 46.9813 11.1467 48.8898 11.1467C50.5787 11.1467 51.972 11.3156 53.0698 11.6533C54.1675 11.9742 55.0542 12.5316 55.7298 13.3253C56.4222 14.1022 56.912 15.0987 57.1991 16.3147C57.4862 17.5138 57.6298 19.0422 57.6298 20.9V31.2107L58.3391 33.1867H51.3978L50.5871 30.932ZM48.5858 29.26C48.8053 29.26 49.008 29.2178 49.1938 29.1333C49.3964 29.032 49.5484 28.9391 49.6498 28.8547L49.8018 28.7027V22.6227C48.7715 22.6227 47.9524 22.9098 47.3444 23.484C46.7364 24.0413 46.4324 24.9111 46.4324 26.0933C46.4324 28.2044 47.1502 29.26 48.5858 29.26ZM65.7843 33.1867L58.3363 11.6533H67.431L69.0523 19.4307L70.2177 26.144L71.5097 19.4307L73.3843 11.6533H80.2243L73.7643 33.1867H65.7843ZM93.0256 20.0893C93.0256 17.9444 92.9158 16.4244 92.6963 15.5293C92.4767 14.6342 92.0714 14.1867 91.4803 14.1867C90.9736 14.1867 90.5598 14.2796 90.2389 14.4653C89.918 14.6342 89.6816 14.9129 89.5296 15.3013C89.3776 15.6729 89.2763 16.0613 89.2256 16.4667C89.1918 16.8551 89.1749 17.3533 89.1749 17.9613V20.0893H93.0256ZM90.9989 33.7187C89.1074 33.7187 87.4607 33.4316 86.0589 32.8573C84.674 32.2831 83.5763 31.4809 82.7656 30.4507C81.9718 29.4204 81.3891 28.2636 81.0176 26.98C80.646 25.6796 80.4603 24.2356 80.4603 22.648C80.4603 18.8649 81.4229 16.0022 83.3483 14.06C85.2736 12.1178 87.9674 11.1467 91.4296 11.1467C94.7567 11.1467 97.138 11.932 98.5736 13.5027C100.009 15.0564 100.727 17.5644 100.727 21.0267V23.8387H89.1496V24.32C89.1496 25.3164 89.2509 26.1356 89.4536 26.7773C89.6731 27.4191 89.9856 27.892 90.3909 28.196C90.7962 28.5 91.21 28.7027 91.6323 28.804C92.0545 28.9053 92.5696 28.956 93.1776 28.956C93.7687 28.956 94.402 28.88 95.0776 28.728C95.77 28.576 96.4625 28.3396 97.1549 28.0187C97.8643 27.6978 98.4554 27.3178 98.9283 26.8787L100.423 29.4373C99.798 30.4507 98.8776 31.3036 97.6616 31.996C96.4625 32.6716 95.3056 33.1276 94.1909 33.364C93.0763 33.6004 92.0123 33.7187 90.9989 33.7187ZM103.193 33.1867V4.53467L101.673 3.62267V1.26667L109.805 0H111.451V33.1867H103.193ZM47.9999 54.1865C47.9999 45.3499 55.1634 38.1865 63.9999 38.1865H155V60.1865C155 69.0231 147.836 76.1865 139 76.1865H47.9999V54.1865ZM55.1808 71.1867H59.1847C59.4321 71.1867 59.5558 71.0825 59.5558 70.8742L59.2628 56.4601L66.1964 71.1867H69.712C69.8422 71.1867 69.9073 71.1085 69.9073 70.9523L69.8683 43.6671C69.8683 43.4588 69.7902 43.3546 69.6339 43.3546H65.6691C65.4347 43.3546 65.3175 43.4588 65.3175 43.6671L65.5128 59.1164L58.755 43.3546H55.1417C54.9334 43.3546 54.8292 43.4588 54.8292 43.6671L54.8683 70.9132C54.8683 71.0955 54.9724 71.1867 55.1808 71.1867ZM76.9972 43.5109L72.0362 70.9914C72.0362 71.1216 72.0883 71.1867 72.1925 71.1867H76.6456C76.7628 71.1867 76.8279 71.1216 76.8409 70.9914L77.2706 68.0617H82.7198L83.1495 70.9914C83.1626 71.1216 83.2342 71.1867 83.3644 71.1867H87.798C87.9152 71.1867 87.9672 71.1216 87.9542 70.9914L83.1886 43.5109C83.1626 43.4067 83.0974 43.3546 82.9933 43.3546H77.1925C77.0883 43.3546 77.0232 43.4067 76.9972 43.5109ZM78.0714 63.7843L79.8683 52.5539L80.0441 51.0695L80.2784 52.5539L81.9191 63.7843H78.0714ZM94.4777 71.1867H98.9894C99.0935 71.1867 99.1456 71.1216 99.1456 70.9914L99.1066 48.1789H104.36C104.465 48.1789 104.517 48.1138 104.517 47.9835V43.5109C104.517 43.4067 104.445 43.3546 104.302 43.3546H89.1066C89.0024 43.3546 88.9503 43.4067 88.9503 43.5109L88.9112 47.9835C88.9112 48.1138 88.9763 48.1789 89.1066 48.1789H94.3019V70.9914C94.3019 71.1216 94.3605 71.1867 94.4777 71.1867ZM106.665 71.1867H111.196C111.301 71.1867 111.353 71.1216 111.353 70.9914L111.314 43.5109C111.314 43.4067 111.262 43.3546 111.157 43.3546H106.665C106.561 43.3546 106.509 43.4067 106.509 43.5109L106.47 70.9914C106.47 71.1216 106.535 71.1867 106.665 71.1867ZM118.345 70.4835C119.543 71.2127 120.851 71.5773 122.271 71.5773C123.716 71.5773 125.031 71.2127 126.216 70.4835C127.401 69.7544 128.351 68.7778 129.068 67.5539C129.771 66.3429 130.122 65.0083 130.122 63.5499L130.083 50.8742C130.083 49.4028 129.725 48.0682 129.009 46.8703C128.306 45.6593 127.368 44.6958 126.196 43.9796C125.038 43.2635 123.729 42.9054 122.271 42.9054C120.864 42.9054 119.562 43.27 118.364 43.9992C117.166 44.7153 116.216 45.6723 115.513 46.8703C114.797 48.0552 114.439 49.3898 114.439 50.8742L114.4 63.5499C114.4 65.0083 114.758 66.3494 115.474 67.5734C116.203 68.7843 117.16 69.7544 118.345 70.4835ZM124.38 65.7765C123.781 66.4276 123.078 66.7531 122.271 66.7531C121.45 66.7531 120.747 66.4406 120.161 65.8156C119.575 65.1776 119.282 64.4223 119.282 63.5499V50.8742C119.282 49.9627 119.575 49.2075 120.161 48.6085C120.747 48.0096 121.45 47.7101 122.271 47.7101C123.13 47.7101 123.84 48.0161 124.4 48.6281C124.959 49.2401 125.239 49.9888 125.239 50.8742L125.278 63.5499C125.278 64.3703 124.979 65.1124 124.38 65.7765ZM133.501 71.1867H137.505C137.752 71.1867 137.876 71.0825 137.876 70.8742L137.583 56.4601L144.517 71.1867H148.032C148.163 71.1867 148.228 71.1085 148.228 70.9523L148.189 43.6671C148.189 43.4588 148.11 43.3546 147.954 43.3546H143.989C143.755 43.3546 143.638 43.4588 143.638 43.6671L143.833 59.1164L137.075 43.3546H133.462C133.254 43.3546 133.15 43.4588 133.15 43.6671L133.189 70.9132C133.189 71.0955 133.293 71.1867 133.501 71.1867Z" fill="white"/>
<path fill-rule="evenodd" clip-rule="evenodd" d="M5.928 33.1867V10.2093H0V3.496H20.4187V10.2093H14.4907V33.1867H5.928ZM31.1266 33.1867H22.9439V16.796L21.4239 15.8587V12.996L26.8706 11.6533H28.9226L29.6572 17.6827C30.3497 13.5449 32.5705 11.476 36.3199 11.476C36.7421 11.476 37.1812 11.552 37.6372 11.704L36.7759 20.7227C36.4212 20.4018 35.6443 20.2413 34.4452 20.2413C32.7225 20.2413 31.6163 20.6973 31.1266 21.6093V33.1867ZM50.5871 30.932L50.3338 31.2107C50.1649 31.4133 49.9031 31.6498 49.5484 31.92C49.2107 32.1902 48.8138 32.4604 48.3578 32.7307C47.9187 33.0009 47.3782 33.2289 46.7364 33.4147C46.0947 33.6173 45.436 33.7187 44.7604 33.7187C40.2004 33.7187 37.9204 31.464 37.9204 26.9547C37.9204 26.0764 38.0809 25.2742 38.4018 24.548C38.7227 23.8049 39.1364 23.18 39.6431 22.6733C40.1498 22.1667 40.7578 21.7191 41.4671 21.3307C42.1764 20.9253 42.8858 20.6129 43.5951 20.3933C44.3213 20.1569 45.0813 19.9627 45.8751 19.8107C46.6689 19.6587 47.3782 19.5573 48.0031 19.5067C48.628 19.456 49.2275 19.4307 49.8018 19.4307V18.9747C49.8018 17.9444 49.5231 17.2182 48.9658 16.796C48.4253 16.3738 47.5471 16.1627 46.3311 16.1627C45.284 16.1627 44.1947 16.2893 43.0631 16.5427C41.9315 16.7791 41.0449 17.0662 40.4031 17.404L38.7818 13.9587C39.9302 13.2156 41.4249 12.5653 43.2658 12.008C45.1067 11.4338 46.9813 11.1467 48.8898 11.1467C50.5787 11.1467 51.972 11.3156 53.0698 11.6533C54.1675 11.9742 55.0542 12.5316 55.7298 13.3253C56.4222 14.1022 56.912 15.0987 57.1991 16.3147C57.4862 17.5138 57.6298 19.0422 57.6298 20.9V31.2107L58.3391 33.1867H51.3978L50.5871 30.932ZM48.5858 29.26C48.8053 29.26 49.008 29.2178 49.1938 29.1333C49.3964 29.032 49.5484 28.9391 49.6498 28.8547L49.8018 28.7027V22.6227C48.7715 22.6227 47.9524 22.9098 47.3444 23.484C46.7364 24.0413 46.4324 24.9111 46.4324 26.0933C46.4324 28.2044 47.1502 29.26 48.5858 29.26ZM65.7843 33.1867L58.3363 11.6533H67.431L69.0523 19.4307L70.2177 26.144L71.5097 19.4307L73.3843 11.6533H80.2243L73.7643 33.1867H65.7843ZM93.0256 20.0893C93.0256 17.9444 92.9158 16.4244 92.6963 15.5293C92.4767 14.6342 92.0714 14.1867 91.4803 14.1867C90.9736 14.1867 90.5598 14.2796 90.2389 14.4653C89.918 14.6342 89.6816 14.9129 89.5296 15.3013C89.3776 15.6729 89.2763 16.0613 89.2256 16.4667C89.1918 16.8551 89.1749 17.3533 89.1749 17.9613V20.0893H93.0256ZM90.9989 33.7187C89.1074 33.7187 87.4607 33.4316 86.0589 32.8573C84.674 32.2831 83.5763 31.4809 82.7656 30.4507C81.9718 29.4204 81.3891 28.2636 81.0176 26.98C80.646 25.6796 80.4603 24.2356 80.4603 22.648C80.4603 18.8649 81.4229 16.0022 83.3483 14.06C85.2736 12.1178 87.9674 11.1467 91.4296 11.1467C94.7567 11.1467 97.138 11.932 98.5736 13.5027C100.009 15.0564 100.727 17.5644 100.727 21.0267V23.8387H89.1496V24.32C89.1496 25.3164 89.2509 26.1356 89.4536 26.7773C89.6731 27.4191 89.9856 27.892 90.3909 28.196C90.7962 28.5 91.21 28.7027 91.6323 28.804C92.0545 28.9053 92.5696 28.956 93.1776 28.956C93.7687 28.956 94.402 28.88 95.0776 28.728C95.77 28.576 96.4625 28.3396 97.1549 28.0187C97.8643 27.6978 98.4554 27.3178 98.9283 26.8787L100.423 29.4373C99.798 30.4507 98.8776 31.3036 97.6616 31.996C96.4625 32.6716 95.3056 33.1276 94.1909 33.364C93.0763 33.6004 92.0123 33.7187 90.9989 33.7187ZM103.193 33.1867V4.53467L101.673 3.62267V1.26667L109.805 0H111.451V33.1867H103.193ZM47.9999 54.1865C47.9999 45.3499 55.1634 38.1865 63.9999 38.1865H155V60.1865C155 69.0231 147.836 76.1865 139 76.1865H47.9999V54.1865ZM55.1808 71.1867H59.1847C59.4321 71.1867 59.5558 71.0825 59.5558 70.8742L59.2628 56.4601L66.1964 71.1867H69.712C69.8422 71.1867 69.9073 71.1085 69.9073 70.9523L69.8683 43.6671C69.8683 43.4588 69.7902 43.3546 69.6339 43.3546H65.6691C65.4347 43.3546 65.3175 43.4588 65.3175 43.6671L65.5128 59.1164L58.755 43.3546H55.1417C54.9334 43.3546 54.8292 43.4588 54.8292 43.6671L54.8683 70.9132C54.8683 71.0955 54.9724 71.1867 55.1808 71.1867ZM76.9972 43.5109L72.0362 70.9914C72.0362 71.1216 72.0883 71.1867 72.1925 71.1867H76.6456C76.7628 71.1867 76.8279 71.1216 76.8409 70.9914L77.2706 68.0617H82.7198L83.1495 70.9914C83.1626 71.1216 83.2342 71.1867 83.3644 71.1867H87.798C87.9152 71.1867 87.9672 71.1216 87.9542 70.9914L83.1886 43.5109C83.1626 43.4067 83.0974 43.3546 82.9933 43.3546H77.1925C77.0883 43.3546 77.0232 43.4067 76.9972 43.5109ZM78.0714 63.7843L79.8683 52.5539L80.0441 51.0695L80.2784 52.5539L81.9191 63.7843H78.0714ZM94.4777 71.1867H98.9894C99.0935 71.1867 99.1456 71.1216 99.1456 70.9914L99.1066 48.1789H104.36C104.465 48.1789 104.517 48.1138 104.517 47.9835V43.5109C104.517 43.4067 104.445 43.3546 104.302 43.3546H89.1066C89.0024 43.3546 88.9503 43.4067 88.9503 43.5109L88.9112 47.9835C88.9112 48.1138 88.9763 48.1789 89.1066 48.1789H94.3019V70.9914C94.3019 71.1216 94.3605 71.1867 94.4777 71.1867ZM106.665 71.1867H111.196C111.301 71.1867 111.353 71.1216 111.353 70.9914L111.314 43.5109C111.314 43.4067 111.262 43.3546 111.157 43.3546H106.665C106.561 43.3546 106.509 43.4067 106.509 43.5109L106.47 70.9914C106.47 71.1216 106.535 71.1867 106.665 71.1867ZM118.345 70.4835C119.543 71.2127 120.851 71.5773 122.271 71.5773C123.716 71.5773 125.031 71.2127 126.216 70.4835C127.401 69.7544 128.351 68.7778 129.068 67.5539C129.771 66.3429 130.122 65.0083 130.122 63.5499L130.083 50.8742C130.083 49.4028 129.725 48.0682 129.009 46.8703C128.306 45.6593 127.368 44.6958 126.196 43.9796C125.038 43.2635 123.729 42.9054 122.271 42.9054C120.864 42.9054 119.562 43.27 118.364 43.9992C117.166 44.7153 116.216 45.6723 115.513 46.8703C114.797 48.0552 114.439 49.3898 114.439 50.8742L114.4 63.5499C114.4 65.0083 114.758 66.3494 115.474 67.5734C116.203 68.7843 117.16 69.7544 118.345 70.4835ZM124.38 65.7765C123.781 66.4276 123.078 66.7531 122.271 66.7531C121.45 66.7531 120.747 66.4406 120.161 65.8156C119.575 65.1776 119.282 64.4223 119.282 63.5499V50.8742C119.282 49.9627 119.575 49.2075 120.161 48.6085C120.747 48.0096 121.45 47.7101 122.271 47.7101C123.13 47.7101 123.84 48.0161 124.4 48.6281C124.959 49.2401 125.239 49.9888 125.239 50.8742L125.278 63.5499C125.278 64.3703 124.979 65.1124 124.38 65.7765ZM133.501 71.1867H137.505C137.752 71.1867 137.876 71.0825 137.876 70.8742L137.583 56.4601L144.517 71.1867H148.032C148.163 71.1867 148.228 71.1085 148.228 70.9523L148.189 43.6671C148.189 43.4588 148.11 43.3546 147.954 43.3546H143.989C143.755 43.3546 143.638 43.4588 143.638 43.6671L143.833 59.1164L137.075 43.3546H133.462C133.254 43.3546 133.15 43.4588 133.15 43.6671L133.189 70.9132C133.189 71.0955 133.293 71.1867 133.501 71.1867Z" fill="white"/>
</svg>
