<svg width="30" height="31" viewBox="0 0 30 31" fill="none" xmlns="http://www.w3.org/2000/svg">
<mask id="path-1-inside-1_725_601" fill="white">
<path fill-rule="evenodd" clip-rule="evenodd" d="M0 15.3332C0 23.4121 6.38775 30 14.388 30.321C14.523 30.3285 14.6588 30.333 14.7945 30.333C14.863 30.3334 14.9315 30.3334 15 30.333C23.2845 30.333 30 23.6176 30 15.3332C30 7.04875 23.2845 0.333328 15 0.333328C6.7155 0.333328 0 7.04875 0 15.3332ZM5.26281 23.794C5.22417 24.1328 5.26235 24.476 5.3745 24.7981C2.97825 22.3621 1.5 19.0201 1.5 15.3332C1.5 7.87749 7.54425 1.83331 15 1.83331C22.4557 1.83331 28.5 7.87749 28.5 15.3332C28.5045 18.8806 27.108 22.2863 24.6143 24.8093C24.7316 24.4889 24.7742 24.1459 24.739 23.8066C24.7037 23.4672 24.5915 23.1403 24.4108 22.8509C24.2301 22.5614 23.9858 22.317 23.6964 22.1363C23.407 21.9555 23.0801 21.8432 22.7407 21.8078C16.9222 21.2056 13.1138 21.1471 7.26675 21.7943C6.92782 21.8323 6.60179 21.946 6.31284 22.1272C6.0239 22.3083 5.77946 22.5522 5.59768 22.8408C5.4159 23.1293 5.30145 23.4551 5.26281 23.794ZM19.2426 16.5758C20.3679 15.4506 21 13.9245 21 12.3332C21 10.7419 20.3679 9.21581 19.2426 8.09061C18.1174 6.9654 16.5913 6.33327 15 6.33327C13.4087 6.33327 11.8826 6.9654 10.7574 8.09061C9.63214 9.21581 9 10.7419 9 12.3332C9 13.9245 9.63214 15.4506 10.7574 16.5758C11.8826 17.701 13.4087 18.3331 15 18.3331C16.5913 18.3331 18.1174 17.701 19.2426 16.5758Z"/>
</mask>
<path fill-rule="evenodd" clip-rule="evenodd" d="M0 15.3332C0 23.4121 6.38775 30 14.388 30.321C14.523 30.3285 14.6588 30.333 14.7945 30.333C14.863 30.3334 14.9315 30.3334 15 30.333C23.2845 30.333 30 23.6176 30 15.3332C30 7.04875 23.2845 0.333328 15 0.333328C6.7155 0.333328 0 7.04875 0 15.3332ZM5.26281 23.794C5.22417 24.1328 5.26235 24.476 5.3745 24.7981C2.97825 22.3621 1.5 19.0201 1.5 15.3332C1.5 7.87749 7.54425 1.83331 15 1.83331C22.4557 1.83331 28.5 7.87749 28.5 15.3332C28.5045 18.8806 27.108 22.2863 24.6143 24.8093C24.7316 24.4889 24.7742 24.1459 24.739 23.8066C24.7037 23.4672 24.5915 23.1403 24.4108 22.8509C24.2301 22.5614 23.9858 22.317 23.6964 22.1363C23.407 21.9555 23.0801 21.8432 22.7407 21.8078C16.9222 21.2056 13.1138 21.1471 7.26675 21.7943C6.92782 21.8323 6.60179 21.946 6.31284 22.1272C6.0239 22.3083 5.77946 22.5522 5.59768 22.8408C5.4159 23.1293 5.30145 23.4551 5.26281 23.794ZM19.2426 16.5758C20.3679 15.4506 21 13.9245 21 12.3332C21 10.7419 20.3679 9.21581 19.2426 8.09061C18.1174 6.9654 16.5913 6.33327 15 6.33327C13.4087 6.33327 11.8826 6.9654 10.7574 8.09061C9.63214 9.21581 9 10.7419 9 12.3332C9 13.9245 9.63214 15.4506 10.7574 16.5758C11.8826 17.701 13.4087 18.3331 15 18.3331C16.5913 18.3331 18.1174 17.701 19.2426 16.5758Z" fill="#43A9F3"/>
<path d="M14.388 30.321L14.4435 29.3225L14.4358 29.3221L14.4281 29.3218L14.388 30.321ZM14.7945 30.333L14.801 29.333H14.7945V30.333ZM15 30.333L15 29.333L14.9935 29.333L15 30.333ZM5.3745 24.7981L4.6616 25.4993L6.31888 24.4692L5.3745 24.7981ZM28.5 15.3332L27.5 15.3332L27.5 15.3344L28.5 15.3332ZM24.6143 24.8093L23.6752 24.4655L25.3255 25.5123L24.6143 24.8093ZM22.7407 21.8078L22.8443 20.8132L22.8437 20.8132L22.7407 21.8078ZM7.26675 21.7943L7.15673 20.8004L7.15559 20.8005L7.26675 21.7943ZM19.2426 16.5758L18.5355 15.8687L18.5355 15.8687L19.2426 16.5758ZM19.2426 8.09061L19.9497 7.3835L19.9497 7.3835L19.2426 8.09061ZM10.7574 8.09061L10.0503 7.3835L10.0503 7.3835L10.7574 8.09061ZM10.7574 16.5758L10.0503 17.2829L10.0503 17.2829L10.7574 16.5758ZM14.4281 29.3218C6.96195 29.0222 1 22.8732 1 15.3332H-1C-1 23.9509 5.81355 30.9778 14.3479 31.3202L14.4281 29.3218ZM14.7945 29.333C14.6806 29.333 14.5637 29.3292 14.4435 29.3225L14.3325 31.3195C14.4823 31.3278 14.6369 31.333 14.7945 31.333V29.333ZM14.9935 29.333C14.9293 29.3334 14.8652 29.3334 14.801 29.333L14.788 31.333C14.8608 31.3334 14.9337 31.3334 15.0065 31.333L14.9935 29.333ZM29 15.3332C29 23.0653 22.7322 29.333 15 29.333V31.333C23.8368 31.333 31 24.1699 31 15.3332H29ZM15 1.33333C22.7322 1.33333 29 7.60105 29 15.3332H31C31 6.49646 23.8368 -0.666672 15 -0.666672V1.33333ZM1 15.3332C1 7.60105 7.26777 1.33333 15 1.33333V-0.666672C6.16323 -0.666672 -1 6.49646 -1 15.3332H1ZM6.31888 24.4692C6.25611 24.289 6.23475 24.0969 6.25637 23.9073L4.26925 23.6807C4.2136 24.1687 4.26858 24.663 4.43012 25.1269L6.31888 24.4692ZM0.5 15.3332C0.5 19.2929 2.08881 22.8839 4.6616 25.4993L6.0874 24.0968C3.86769 21.8403 2.5 18.7473 2.5 15.3332H0.5ZM15 0.833312C6.99198 0.833312 0.5 7.3252 0.5 15.3332H2.5C2.5 8.42979 8.09652 2.83331 15 2.83331V0.833312ZM29.5 15.3332C29.5 7.3252 23.008 0.833312 15 0.833312V2.83331C21.9035 2.83331 27.5 8.42979 27.5 15.3332H29.5ZM25.3255 25.5123C28.0045 22.8017 29.5048 19.1429 29.5 15.3319L27.5 15.3344C27.5041 18.6182 26.2114 21.7708 23.903 24.1063L25.3255 25.5123ZM23.7443 23.9099C23.7639 24.0979 23.7402 24.2879 23.6752 24.4655L25.5533 25.1531C25.7229 24.6899 25.7846 24.194 25.7336 23.7032L23.7443 23.9099ZM23.5625 23.3804C23.6626 23.5407 23.7248 23.7218 23.7443 23.9099L25.7336 23.7032C25.6826 23.2125 25.5204 22.7399 25.2591 22.3213L23.5625 23.3804ZM23.1667 22.9844C23.327 23.0846 23.4624 23.22 23.5625 23.3804L25.2591 22.3213C24.9979 21.9028 24.6446 21.5494 24.2261 21.2881L23.1667 22.9844ZM22.6372 22.8025C22.8252 22.822 23.0063 22.8843 23.1667 22.9844L24.2261 21.2881C23.8076 21.0267 23.335 20.8643 22.8443 20.8132L22.6372 22.8025ZM7.37677 22.7883C13.1436 22.1499 16.8801 22.2066 22.6378 22.8025L22.8437 20.8132C16.9644 20.2046 13.0839 20.1443 7.15673 20.8004L7.37677 22.7883ZM6.84403 22.9744C7.00575 22.873 7.18822 22.8094 7.37791 22.7881L7.15559 20.8005C6.66743 20.8551 6.19783 21.019 5.78165 21.2799L6.84403 22.9744ZM6.44379 23.3738C6.54552 23.2123 6.68232 23.0758 6.84403 22.9744L5.78165 21.2799C5.36547 21.5408 5.0134 21.8921 4.75158 22.3078L6.44379 23.3738ZM6.25637 23.9073C6.278 23.7176 6.34205 23.5353 6.44379 23.3738L4.75158 22.3078C4.48976 22.7234 4.3249 23.1926 4.26925 23.6807L6.25637 23.9073ZM20 12.3332C20 13.6593 19.4732 14.931 18.5355 15.8687L19.9497 17.2829C21.2625 15.9702 22 14.1897 22 12.3332H20ZM18.5355 8.79772C19.4732 9.73539 20 11.0071 20 12.3332H22C22 10.4767 21.2625 8.69624 19.9497 7.3835L18.5355 8.79772ZM15 7.33327C16.3261 7.33327 17.5979 7.86005 18.5355 8.79772L19.9497 7.3835C18.637 6.07076 16.8565 5.33327 15 5.33327V7.33327ZM11.4645 8.79772C12.4021 7.86005 13.6739 7.33327 15 7.33327V5.33327C13.1435 5.33327 11.363 6.07076 10.0503 7.3835L11.4645 8.79772ZM10 12.3332C10 11.0071 10.5268 9.73539 11.4645 8.79772L10.0503 7.3835C8.7375 8.69624 8 10.4767 8 12.3332H10ZM11.4645 15.8687C10.5268 14.931 10 13.6593 10 12.3332H8C8 14.1897 8.7375 15.9702 10.0503 17.2829L11.4645 15.8687ZM15 17.3331C13.6739 17.3331 12.4021 16.8064 11.4645 15.8687L10.0503 17.2829C11.363 18.5956 13.1435 19.3331 15 19.3331V17.3331ZM18.5355 15.8687C17.5979 16.8064 16.3261 17.3331 15 17.3331V19.3331C16.8565 19.3331 18.637 18.5956 19.9497 17.2829L18.5355 15.8687Z" fill="black" fill-opacity="0.05" mask="url(#path-1-inside-1_725_601)"/>
</svg>
